Coordinates
version=1
nRows=17
nColumns=24
inDegrees=yes

Units are S.I. units (second, meters, Newtons, ...)
Angles are in degrees.

endheader
time	pelvis_tilt	pelvis_list	pelvis_rotation	pelvis_tx	pelvis_ty	pelvis_tz	hip_flexion_r	hip_adduction_r	hip_rotation_r	knee_angle_r	ankle_angle_r	subtalar_angle_r	mtp_angle_r	hip_flexion_l	hip_adduction_l	hip_rotation_l	knee_angle_l	ankle_angle_l	subtalar_angle_l	mtp_angle_l	lumbar_extension	lumbar_bending	lumbar_rotation
      1.24000000	     -6.36351119	      0.42779710	      3.65313522	     -0.09091652	      0.91047130	     -0.00216092	     43.77491594	     -3.96027318	     -7.33990493	    -47.92246582	     23.88552712	      0.00000045	      0.00000000	     10.62238435	     -1.66249154	     -1.33899843	    -56.20517826	     -0.39056674	      0.00000007	      0.00000000	    -15.58031182	     -0.00455759	     -1.15050690
      1.25000000	     -6.47490916	      0.51868493	      3.16736174	     -0.09196899	      0.91372470	     -0.00002989	     42.57273264	     -3.70169980	     -7.29620216	    -47.06076375	     24.17425642	      0.00000044	      0.00000000	     12.47290723	     -1.73661257	     -1.32759679	    -58.98128338	     -0.10092002	      0.00000010	      0.00000000	    -15.47249729	     -0.23988139	     -0.61338159
      1.26000000	     -6.60028340	      0.62382813	      2.70991494	     -0.09313655	      0.91725459	      0.00195270	     41.25641590	     -3.45448453	     -7.23539742	    -45.91186315	     24.07415128	      0.00000045	      0.00000000	     14.24563871	     -1.76088987	     -0.94220822	    -61.20891003	      1.00065086	      0.00000028	      0.00000000	    -15.35822347	     -0.48183305	     -0.15983066
      1.27000000	     -6.75317175	      0.79164856	      2.26888064	     -0.09451835	      0.92084980	      0.00381237	     39.99157442	     -3.28214308	     -7.11351858	    -44.74018458	     24.09926503	      0.00000053	      0.00000000	     16.06129903	     -1.71831084	     -0.43125046	    -63.00591355	      2.39372033	      0.00000046	      0.00000000	    -15.25048254	     -0.79685871	      0.24793285
      1.28000000	     -6.86170452	      0.90561287	      1.84274110	     -0.09604093	      0.92483255	      0.00568994	     38.66875260	     -3.05260160	     -6.96434327	    -43.53548096	     24.53760346	      0.00000050	      0.00000000	     17.87733363	     -1.80060104	     -0.06345785	    -64.37039603	      3.06008021	      0.00000057	      0.00000000	    -15.22840882	     -1.07349304	      0.66407226
      1.29000000	     -7.08495258	      1.22286371	      1.42168906	     -0.09792520	      0.92822318	      0.00726407	     37.44089131	     -3.04005565	     -6.71668255	    -42.16459060	     24.20643407	      0.00000053	      0.00000000	     19.88672265	     -1.61038197	      0.10823049	    -65.46210915	      3.22737158	      0.00000060	      0.00000000	    -15.07861378	     -1.52495651	      0.94356050
      1.30000000	     -7.30487849	      1.55466872	      1.05671202	     -0.09976680	      0.93164975	      0.00872219	     36.26688836	     -3.10141242	     -6.48876702	    -40.93388645	     24.31898799	      0.00000047	      0.00000000	     21.87395002	     -1.40133320	      0.03045211	    -66.20892474	      2.96820675	      0.00000067	      0.00000000	    -14.93630304	     -1.99632301	      1.20712457
      1.31000000	     -7.49204471	      1.79981555	      0.75076856	     -0.10163650	      0.93508672	      0.00995660	     34.86816315	     -3.08586760	     -6.31756764	    -39.34951858	     23.89735875	      0.00000054	      0.00000000	     23.84432834	     -1.25867578	     -0.24265977	    -66.75809019	      2.50901141	      0.00000072	      0.00000000	    -14.84041766	     -2.34241136	      1.42176858
      1.32000000	     -7.64498889	      1.99305419	      0.49806992	     -0.10346255	      0.93846756	      0.01106870	     33.40343088	     -3.06880210	     -6.22041157	    -37.72741456	     23.63637350	      0.00000049	      0.00000000	     25.75526843	     -1.16701701	     -0.67864493	    -67.09018714	      2.07107203	      0.00000070	      0.00000000	    -14.77941829	     -2.62369527	      1.61325330
      1.33000000	     -7.81653755	      2.19584749	      0.27674078	     -0.10532411	      0.94165756	      0.01208498	     31.96505088	     -3.08546395	     -6.12869053	    -36.10957211	     23.46889233	      0.00000052	      0.00000000	     27.63026281	     -1.06282993	     -1.26650530	    -67.14607685	      1.65699186	      0.00000070	      0.00000000	    -14.70227172	     -2.93088763	      1.80175281
      1.34000000	     -7.97411015	      2.25714348	      0.09740386	     -0.10733181	      0.94426591	      0.01288365	     30.48907311	     -2.98267522	     -6.11792137	    -34.45004972	     23.17031711	      0.00000056	      0.00000000	     29.63906849	     -1.11398595	     -1.88911900	    -67.32887982	      2.44351805	      0.00000072	      0.00000000	    -14.62060310	     -3.02955356	      1.96024176
      1.35000000	     -8.08634729	      2.49708572	     -0.02907664	     -0.10936702	      0.94701865	      0.01355004	     28.98024681	     -3.08645792	     -6.05582684	    -32.78263609	     22.89224423	      0.00000047	      0.00000000	     31.38770734	     -1.04384409	     -2.71480758	    -66.95182951	      2.88941004	      0.00000065	      0.00000000	    -14.63215104	     -3.34763494	      2.08849092
      1.36000000	     -8.18098566	      2.64174925	     -0.22820712	     -0.11123904	      0.94912363	      0.01427663	     27.46849721	     -3.05816874	     -5.92846399	    -31.18995129	     22.35146279	      0.00000049	      0.00000000	     33.11662996	     -1.18823340	     -3.65880287	    -66.52873785	      4.08228906	      0.00000057	      0.00000000	    -14.57753078	     -3.55588550	      2.26638631
      1.37000000	     -8.27834497	      2.76153377	     -0.41217251	     -0.11310623	      0.95093607	      0.01499041	     25.90968439	     -2.98747838	     -5.80799919	    -29.40950521	     21.77461389	      0.00000049	      0.00000000	     34.77069820	     -1.41564384	     -4.64779858	    -65.85769411	      5.40123338	      0.00000050	      0.00000000	    -14.53377414	     -3.74541089	      2.49182188
      1.38000000	     -8.33016307	      2.88689167	     -0.59063874	     -0.11488199	      0.95248263	      0.01570727	     24.39297717	     -2.93976736	     -5.68450777	    -27.77640370	     21.44503606	      0.00000046	      0.00000000	     36.26373078	     -1.64058286	     -5.61262093	    -64.90318947	      6.68237328	      0.00000041	      0.00000000	    -14.51864818	     -3.94263643	      2.71398521
      1.39000000	     -8.39394885	      2.99483530	     -0.75634243	     -0.11672245	      0.95349603	      0.01632498	     22.89188669	     -2.88722705	     -5.56578948	    -26.12580748	     20.81433661	      0.00000049	      0.00000000	     37.70505248	     -1.87082764	     -6.51706624	    -63.75692652	      8.01610732	      0.00000030	      0.00000000	    -14.47516734	     -4.11865936	      2.91625955
      1.40000000	     -8.42895143	      3.05254444	     -0.91947829	     -0.11852159	      0.95415330	      0.01691589	     21.40779802	     -2.78558066	     -5.41737251	    -24.56859396	     20.45243661	      0.00000053	      0.00000000	     39.00903759	     -2.14497369	     -7.38916774	    -62.36367160	      9.15253074	      0.00000021	      0.00000000	    -14.46380229	     -4.24080216	      3.14222141
